<?xml version="1.0" encoding="UTF-8" standalone="no"?>
<!-- Created with Inkscape (http://www.inkscape.org/) -->

<svg
   version="1.1"
   id="svg2"
   xml:space="preserve"
   width="6666.6665"
   height="4000"
   viewBox="0 0 6666.6665 4000"
   sodipodi:docname="spoorthi.ai"
   xmlns:inkscape="http://www.inkscape.org/namespaces/inkscape"
   xmlns:sodipodi="http://sodipodi.sourceforge.net/DTD/sodipodi-0.dtd"
   xmlns="http://www.w3.org/2000/svg"
   xmlns:svg="http://www.w3.org/2000/svg"><defs
     id="defs6"><clipPath
       clipPathUnits="userSpaceOnUse"
       id="clipPath16"><path
         d="M 0,3000 H 5000 V 0 H 0 Z"
         id="path14" /></clipPath><clipPath
       clipPathUnits="userSpaceOnUse"
       id="clipPath196"><path
         d="M 0,3000 H 5000 V 0 H 0 Z"
         id="path194" /></clipPath></defs><sodipodi:namedview
     id="namedview4"
     pagecolor="#ffffff"
     bordercolor="#666666"
     borderopacity="1.0"
     inkscape:pageshadow="2"
     inkscape:pageopacity="0.0"
     inkscape:pagecheckerboard="0" /><g
     id="g8"
     inkscape:groupmode="layer"
     inkscape:label="spoorthi"
     transform="matrix(1.3333333,0,0,-1.3333333,0,4000)"><g
       id="g10"><g
         id="g12"
         clip-path="url(#clipPath16)"><g
           id="g18"
           transform="translate(3260.6299,1568.46)"><path
             d="m 0,0 c -47.71,380.12 -372.73,666.77 -755.97,666.77 -383.24,0 -708.26,-286.65 -755.97,-666.77 -4.44,-35.31 -9.16,-60.19 -19.21,-78.02 -4.53,-8.03 -10.14,-14.62 -17.29,-20.1 7.15,-5.48 12.76,-12.07 17.29,-20.1 7.56,5.81 13.75,12.48 18.89,20.1 15.15,22.46 21.21,53.25 26.44,94.83 46.07,367 359.85,643.74 729.85,643.74 370.01,0 683.79,-276.74 729.85,-643.74 5.23,-41.58 11.29,-72.37 26.46,-94.83 5.14,7.62 11.33,14.28 18.89,20.09 C 9.16,-60.2 4.44,-35.31 0,0 m 210,-98.12 c -0.03,-11.07 -0.26,-22.09 -0.67,-33.08 l -93.51,9.51 c -38.28,4.39 -62.85,11.01 -79.28,23.57 -7.16,5.47 -12.78,12.07 -17.31,20.09 C 9.16,-60.2 4.44,-35.31 0,0 c -47.71,380.12 -372.73,666.77 -755.97,666.77 -383.24,0 -708.26,-286.65 -755.97,-666.77 -4.44,-35.31 -9.16,-60.19 -19.21,-78.02 -4.53,-8.03 -10.14,-14.62 -17.29,-20.1 -16.4,-12.56 -40.92,-19.18 -79.13,-23.57 l -93.7,-9.51 c -0.41,10.99 -0.63,22.01 -0.66,33.08 -0.01,0.95 -0.01,1.9 -0.01,2.85 0,19 0.55,37.87 1.64,56.59 29.39,506.48 450.67,909.52 964.33,909.52 513.64,0 934.95,-403.04 964.34,-909.52 1.09,-18.72 1.64,-37.59 1.64,-56.59 0,-0.95 0,-1.9 -0.01,-2.85 m -965.97,995.28 c -547.15,0 -992.3,-445.2 -992.3,-992.43 0,-0.95 0,-1.9 0.01,-2.85 0.04,-16.16 0.48,-32.25 1.31,-48.25 l 0.69,-13.83 25.96,2.64 95.56,9.7 c 44.51,5.12 73.76,14.42 93.59,29.64 7.56,5.81 13.75,12.48 18.89,20.1 15.15,22.46 21.21,53.25 26.44,94.83 46.07,367 359.85,643.74 729.85,643.74 370.01,0 683.79,-276.74 729.85,-643.74 5.23,-41.58 11.29,-72.37 26.46,-94.83 5.14,-7.62 11.33,-14.28 18.89,-20.09 19.86,-15.23 49.17,-24.53 93.76,-29.65 l 95.38,-9.7 25.96,-2.64 0.69,13.83 c 0.82,16 1.26,32.09 1.3,48.25 0.01,0.95 0.01,1.9 0.01,2.85 0,547.23 -445.15,992.43 -992.3,992.43 M 0,0 c -47.71,380.12 -372.73,666.77 -755.97,666.77 -383.24,0 -708.26,-286.65 -755.97,-666.77 -4.44,-35.31 -9.16,-60.19 -19.21,-78.02 -4.53,-8.03 -10.14,-14.62 -17.29,-20.1 7.15,-5.48 12.76,-12.07 17.29,-20.1 7.56,5.81 13.75,12.48 18.89,20.1 15.15,22.46 21.21,53.25 26.44,94.83 46.07,367 359.85,643.74 729.85,643.74 370.01,0 683.79,-276.74 729.85,-643.74 5.23,-41.58 11.29,-72.37 26.46,-94.83 5.14,7.62 11.33,14.28 18.89,20.09 C 9.16,-60.2 4.44,-35.31 0,0"
             style="fill:#a1bc30;fill-opacity:1;fill-rule:nonzero;stroke:none"
             id="path20" /></g><g
           id="g22"
           transform="translate(3279.8599,1490.4299)"><path
             d="m 0,0 c -7.56,-5.81 -13.75,-12.47 -18.89,-20.09 -15.17,-22.46 -21.23,-53.25 -26.46,-94.83 -46.06,-367 -359.84,-643.74 -729.85,-643.74 -370,0 -683.78,276.74 -729.85,643.74 -5.23,41.58 -11.29,72.37 -26.44,94.83 -5.14,-7.62 -11.33,-14.29 -18.89,-20.1 10.05,-17.83 14.77,-42.71 19.21,-78.02 47.71,-380.12 372.73,-666.77 755.97,-666.77 383.24,0 708.26,286.65 755.97,666.77 4.44,35.31 9.16,60.2 19.23,78.03 4.53,8.02 10.15,14.62 17.31,20.09 C 10.15,-14.62 4.53,-8.02 0,0 m -775.2,-989.05 c -513.66,0 -934.94,403.04 -964.33,909.52 -1.09,18.72 -1.64,37.59 -1.64,56.59 0,0.95 0,1.9 0.01,2.85 0.03,11.07 0.25,22.09 0.66,33.08 l 93.7,-9.51 c 38.21,-4.39 62.73,-11.01 79.13,-23.57 7.15,-5.48 12.76,-12.07 17.29,-20.1 10.05,-17.83 14.77,-42.71 19.21,-78.02 47.71,-380.12 372.73,-666.77 755.97,-666.77 383.24,0 708.26,286.65 755.97,666.77 4.44,35.31 9.16,60.2 19.23,78.03 4.53,8.02 10.15,14.62 17.31,20.09 16.43,12.56 41,19.18 79.28,23.57 l 93.51,9.51 c 0.41,-10.99 0.64,-22.01 0.67,-33.08 0.01,-0.95 0.01,-1.9 0.01,-2.85 0,-19 -0.55,-37.87 -1.64,-56.59 -29.39,-506.48 -450.7,-909.52 -964.34,-909.52 m 992.29,968.96 c -0.04,16.16 -0.48,32.25 -1.3,48.25 L 215.1,41.99 189.14,39.35 93.76,29.65 C 49.17,24.53 19.86,15.23 0,0 c -7.56,-5.81 -13.75,-12.47 -18.89,-20.09 -15.17,-22.46 -21.23,-53.25 -26.46,-94.83 -46.06,-367 -359.84,-643.74 -729.85,-643.74 -370,0 -683.78,276.74 -729.85,643.74 -5.23,41.58 -11.29,72.37 -26.44,94.83 -5.14,7.62 -11.33,14.29 -18.89,20.1 -19.83,15.22 -49.08,24.52 -93.59,29.64 l -95.56,9.7 -25.96,2.64 -0.69,-13.83 c -0.83,-16 -1.27,-32.09 -1.31,-48.25 -0.01,-0.95 -0.01,-1.9 -0.01,-2.85 0,-547.23 445.15,-992.43 992.3,-992.43 547.15,0 992.3,445.2 992.3,992.43 0,0.95 0,1.9 -0.01,2.85 M 0,0 c -7.56,-5.81 -13.75,-12.47 -18.89,-20.09 -15.17,-22.46 -21.23,-53.25 -26.46,-94.83 -46.06,-367 -359.84,-643.74 -729.85,-643.74 -370,0 -683.78,276.74 -729.85,643.74 -5.23,41.58 -11.29,72.37 -26.44,94.83 -5.14,-7.62 -11.33,-14.29 -18.89,-20.1 10.05,-17.83 14.77,-42.71 19.21,-78.02 47.71,-380.12 372.73,-666.77 755.97,-666.77 383.24,0 708.26,286.65 755.97,666.77 4.44,35.31 9.16,60.2 19.23,78.03 4.53,8.02 10.15,14.62 17.31,20.09 C 10.15,-14.62 4.53,-8.02 0,0"
             style="fill:#a1bc30;fill-opacity:1;fill-rule:nonzero;stroke:none"
             id="path24" /></g><g
           id="g26"
           transform="translate(1712.1899,1470.3401)"><path
             d="m 0,0 c -16.4,-12.56 -40.92,-19.18 -79.13,-23.57 l -93.7,-9.51 c -0.41,10.99 -0.63,22.01 -0.66,33.08 0.03,11.07 0.25,22.09 0.66,33.08 l 93.7,-9.51 C -40.92,19.18 -16.4,12.56 0,0"
             style="fill:#a1bc30;fill-opacity:1;fill-rule:nonzero;stroke:none"
             id="path28" /></g><g
           id="g30"
           transform="translate(3470.6299,1470.3401)"><path
             d="m 0,0 c -0.03,-11.07 -0.26,-22.09 -0.67,-33.08 l -93.51,9.51 c -38.28,4.39 -62.85,11.01 -79.28,23.57 16.43,12.56 41,19.18 79.28,23.57 l 93.51,9.51 C -0.26,22.09 -0.03,11.07 0,0"
             style="fill:#a1bc30;fill-opacity:1;fill-rule:nonzero;stroke:none"
             id="path32" /></g></g></g><text
       transform="matrix(0.14910595,0.98882123,0.98882123,-0.14910595,1704.2329,1541.2483)"
       style="font-variant:normal;font-weight:bold;font-stretch:condensed;font-size:181px;font-family:'Geometr212 BkCn BT';-inkscape-font-specification:Geometric212BT-HeavyCondensed;writing-mode:lr-tb;fill:#26a9e0;fill-opacity:1;fill-rule:nonzero;stroke:none"
       id="text36"><tspan
         x="0"
         y="0"
         id="tspan34">S</tspan></text><text
       transform="matrix(0.30477332,0.95242492,0.95242492,-0.30477332,1725.1399,1667.7169)"
       style="font-variant:normal;font-weight:bold;font-stretch:condensed;font-size:181px;font-family:'Geometr212 BkCn BT';-inkscape-font-specification:Geometric212BT-HeavyCondensed;writing-mode:lr-tb;fill:#26a9e0;fill-opacity:1;fill-rule:nonzero;stroke:none"
       id="text40"><tspan
         x="0"
         y="0"
         id="tspan38">p</tspan></text><text
       transform="matrix(0.44982075,0.89311886,0.89311886,-0.44982075,1765.6713,1788.1311)"
       style="font-variant:normal;font-weight:bold;font-stretch:condensed;font-size:181px;font-family:'Geometr212 BkCn BT';-inkscape-font-specification:Geometric212BT-HeavyCondensed;writing-mode:lr-tb;fill:#26a9e0;fill-opacity:1;fill-rule:nonzero;stroke:none"
       id="text44"><tspan
         x="0"
         y="0"
         id="tspan42">o</tspan></text><text
       transform="matrix(0.58117976,0.8137752,0.8137752,-0.58117976,1822.6893,1897.5012)"
       style="font-variant:normal;font-weight:bold;font-stretch:condensed;font-size:181px;font-family:'Geometr212 BkCn BT';-inkscape-font-specification:Geometric212BT-HeavyCondensed;writing-mode:lr-tb;fill:#26a9e0;fill-opacity:1;fill-rule:nonzero;stroke:none"
       id="text48"><tspan
         x="0"
         y="0"
         id="tspan46">o</tspan></text><text
       transform="matrix(0.68751101,0.72617396,0.72617396,-0.68751101,1896.5797,1996.7639)"
       style="font-variant:normal;font-weight:bold;font-stretch:condensed;font-size:181px;font-family:'Geometr212 BkCn BT';-inkscape-font-specification:Geometric212BT-HeavyCondensed;writing-mode:lr-tb;fill:#26a9e0;fill-opacity:1;fill-rule:nonzero;stroke:none"
       id="text52"><tspan
         x="0"
         y="0"
         id="tspan50">r</tspan></text><text
       transform="matrix(0.76792716,0.64053718,0.64053718,-0.76792716,1965.9706,2067.6809)"
       style="font-variant:normal;font-weight:bold;font-stretch:condensed;font-size:181px;font-family:'Geometr212 BkCn BT';-inkscape-font-specification:Geometric212BT-HeavyCondensed;writing-mode:lr-tb;fill:#26a9e0;fill-opacity:1;fill-rule:nonzero;stroke:none"
       id="text56"><tspan
         x="0"
         y="0"
         id="tspan54">t</tspan></text><text
       transform="matrix(0.8486189,0.5290047,0.5290047,-0.8486189,2035.0706,2125.156)"
       style="font-variant:normal;font-weight:bold;font-stretch:condensed;font-size:181px;font-family:'Geometr212 BkCn BT';-inkscape-font-specification:Geometric212BT-HeavyCondensed;writing-mode:lr-tb;fill:#26a9e0;fill-opacity:1;fill-rule:nonzero;stroke:none"
       id="text60"><tspan
         x="0"
         y="0"
         id="tspan58">h</tspan></text><text
       transform="matrix(0.91987018,0.39222297,0.39222297,-0.91987018,2147.6523,2192.6038)"
       style="font-variant:normal;font-weight:bold;font-stretch:condensed;font-size:181px;font-family:'Geometr212 BkCn BT';-inkscape-font-specification:Geometric212BT-HeavyCondensed;writing-mode:lr-tb;fill:#26a9e0;fill-opacity:1;fill-rule:nonzero;stroke:none"
       id="text64"><tspan
         x="0"
         y="0"
         id="tspan62">y</tspan></text><text
       transform="matrix(0.99035727,0.13853691,0.13853691,-0.99035727,2324.4233,2257.4788)"
       style="font-variant:normal;font-weight:bold;font-stretch:condensed;font-size:181px;font-family:'Geometr212 BkCn BT';-inkscape-font-specification:Geometric212BT-HeavyCondensed;writing-mode:lr-tb;fill:#26a9e0;fill-opacity:1;fill-rule:nonzero;stroke:none"
       id="text68"><tspan
         x="0"
         y="0"
         id="tspan66">O</tspan></text><text
       transform="matrix(0.99980226,-0.01988563,-0.01988563,-0.99980226,2483.3938,2275.4216)"
       style="font-variant:normal;font-weight:bold;font-stretch:condensed;font-size:181px;font-family:'Geometr212 BkCn BT';-inkscape-font-specification:Geometric212BT-HeavyCondensed;writing-mode:lr-tb;fill:#26a9e0;fill-opacity:1;fill-rule:nonzero;stroke:none"
       id="text72"><tspan
         x="0"
         y="0"
         id="tspan70">r</tspan></text><text
       transform="matrix(0.98722872,-0.1593093,-0.1593093,-0.98722872,2581.9585,2272.885)"
       style="font-variant:normal;font-weight:bold;font-stretch:condensed;font-size:181px;font-family:'Geometr212 BkCn BT';-inkscape-font-specification:Geometric212BT-HeavyCondensed;writing-mode:lr-tb;fill:#26a9e0;fill-opacity:1;fill-rule:nonzero;stroke:none"
       id="text76"><tspan
         x="0"
         y="0"
         id="tspan74">g</tspan></text><text
       transform="matrix(0.94954664,-0.31362586,-0.31362586,-0.94954664,2706.5161,2251.0234)"
       style="font-variant:normal;font-weight:bold;font-stretch:condensed;font-size:181px;font-family:'Geometr212 BkCn BT';-inkscape-font-specification:Geometric212BT-HeavyCondensed;writing-mode:lr-tb;fill:#26a9e0;fill-opacity:1;fill-rule:nonzero;stroke:none"
       id="text80"><tspan
         x="0"
         y="0"
         id="tspan78">a</tspan></text><text
       transform="matrix(0.88672522,-0.46229685,-0.46229685,-0.88672522,2826.5122,2209.6731)"
       style="font-variant:normal;font-weight:bold;font-stretch:condensed;font-size:181px;font-family:'Geometr212 BkCn BT';-inkscape-font-specification:Geometric212BT-HeavyCondensed;writing-mode:lr-tb;fill:#26a9e0;fill-opacity:1;fill-rule:nonzero;stroke:none"
       id="text84"><tspan
         x="0"
         y="0"
         id="tspan82">n</tspan></text><text
       transform="matrix(0.81976843,-0.57269514,-0.57269514,-0.81976843,2941.9387,2145.7485)"
       style="font-variant:normal;font-weight:bold;font-stretch:condensed;font-size:181px;font-family:'Geometr212 BkCn BT';-inkscape-font-specification:Geometric212BT-HeavyCondensed;writing-mode:lr-tb;fill:#26a9e0;fill-opacity:1;fill-rule:nonzero;stroke:none"
       id="text88"><tspan
         x="0"
         y="0"
         id="tspan86">i</tspan></text><text
       transform="matrix(0.74881651,-0.66277736,-0.66277736,-0.74881651,3003.8884,2101.9858)"
       style="font-variant:normal;font-weight:bold;font-stretch:condensed;font-size:181px;font-family:'Geometr212 BkCn BT';-inkscape-font-specification:Geometric212BT-HeavyCondensed;writing-mode:lr-tb;fill:#26a9e0;fill-opacity:1;fill-rule:nonzero;stroke:none"
       id="text92"><tspan
         x="0"
         y="0"
         id="tspan90">z</tspan></text><text
       transform="matrix(0.64447268,-0.76462733,-0.76462733,-0.64447268,3084.3088,2029.5392)"
       style="font-variant:normal;font-weight:bold;font-stretch:condensed;font-size:181px;font-family:'Geometr212 BkCn BT';-inkscape-font-specification:Geometric212BT-HeavyCondensed;writing-mode:lr-tb;fill:#26a9e0;fill-opacity:1;fill-rule:nonzero;stroke:none"
       id="text96"><tspan
         x="0"
         y="0"
         id="tspan94">a</tspan></text><text
       transform="matrix(0.53549024,-0.84454141,-0.84454141,-0.53549024,3164.3809,1930.1665)"
       style="font-variant:normal;font-weight:bold;font-stretch:condensed;font-size:181px;font-family:'Geometr212 BkCn BT';-inkscape-font-specification:Geometric212BT-HeavyCondensed;writing-mode:lr-tb;fill:#26a9e0;fill-opacity:1;fill-rule:nonzero;stroke:none"
       id="text100"><tspan
         x="0"
         y="0"
         id="tspan98">t</tspan></text><text
       transform="matrix(0.44461304,-0.89572275,-0.89572275,-0.44461304,3211.6169,1852.641)"
       style="font-variant:normal;font-weight:bold;font-stretch:condensed;font-size:181px;font-family:'Geometr212 BkCn BT';-inkscape-font-specification:Geometric212BT-HeavyCondensed;writing-mode:lr-tb;fill:#26a9e0;fill-opacity:1;fill-rule:nonzero;stroke:none"
       id="text104"><tspan
         x="0"
         y="0"
         id="tspan102">i</tspan></text><text
       transform="matrix(0.32918316,-0.94426609,-0.94426609,-0.32918316,3245.2795,1784.9877)"
       style="font-variant:normal;font-weight:bold;font-stretch:condensed;font-size:181px;font-family:'Geometr212 BkCn BT';-inkscape-font-specification:Geometric212BT-HeavyCondensed;writing-mode:lr-tb;fill:#26a9e0;fill-opacity:1;fill-rule:nonzero;stroke:none"
       id="text108"><tspan
         x="0"
         y="0"
         id="tspan106">o</tspan></text><text
       transform="matrix(0.17507341,-0.98455538,-0.98455538,-0.17507341,3284.4524,1668.1716)"
       style="font-variant:normal;font-weight:bold;font-stretch:condensed;font-size:181px;font-family:'Geometr212 BkCn BT';-inkscape-font-specification:Geometric212BT-HeavyCondensed;writing-mode:lr-tb;fill:#26a9e0;fill-opacity:1;fill-rule:nonzero;stroke:none"
       id="text112"><tspan
         x="0"
         y="0"
         id="tspan110">n</tspan></text><text
       transform="matrix(0.19183933,-0.98142635,-0.98142635,-0.19183933,1574.4641,1364.7633)"
       style="font-variant:normal;font-weight:bold;font-stretch:condensed;font-size:168.999px;font-family:'Geometr212 BkCn BT';-inkscape-font-specification:Geometric212BT-HeavyCondensed;writing-mode:lr-tb;fill:#26a9e0;fill-opacity:1;fill-rule:nonzero;stroke:none"
       id="text116"><tspan
         x="0"
         y="0"
         id="tspan114">B</tspan></text><text
       transform="matrix(0.36081451,-0.9326376,-0.9326376,-0.36081451,1615.2433,1188.3835)"
       style="font-variant:normal;font-weight:bold;font-stretch:condensed;font-size:168.999px;font-family:'Geometr212 BkCn BT';-inkscape-font-specification:Geometric212BT-HeavyCondensed;writing-mode:lr-tb;fill:#26a9e0;fill-opacity:1;fill-rule:nonzero;stroke:none"
       id="text120"><tspan
         x="0"
         y="0"
         id="tspan118">e</tspan></text><text
       transform="matrix(0.4811069,-0.87666194,-0.87666194,-0.4811069,1671.7227,1055.7942)"
       style="font-variant:normal;font-weight:bold;font-stretch:condensed;font-size:168.999px;font-family:'Geometr212 BkCn BT';-inkscape-font-specification:Geometric212BT-HeavyCondensed;writing-mode:lr-tb;fill:#26a9e0;fill-opacity:1;fill-rule:nonzero;stroke:none"
       id="text124"><tspan
         x="0"
         y="0"
         id="tspan122">l</tspan></text><text
       transform="matrix(0.57158573,-0.82054235,-0.82054235,-0.57158573,1720.8767,971.6127)"
       style="font-variant:normal;font-weight:bold;font-stretch:condensed;font-size:168.999px;font-family:'Geometr212 BkCn BT';-inkscape-font-specification:Geometric212BT-HeavyCondensed;writing-mode:lr-tb;fill:#26a9e0;fill-opacity:1;fill-rule:nonzero;stroke:none"
       id="text128"><tspan
         x="0"
         y="0"
         id="tspan126">i</tspan></text><text
       transform="matrix(0.67515557,-0.73767537,-0.73767537,-0.67515557,1779.3634,890.9708)"
       style="font-variant:normal;font-weight:bold;font-stretch:condensed;font-size:168.999px;font-family:'Geometr212 BkCn BT';-inkscape-font-specification:Geometric212BT-HeavyCondensed;writing-mode:lr-tb;fill:#26a9e0;fill-opacity:1;fill-rule:nonzero;stroke:none"
       id="text132"><tspan
         x="0"
         y="0"
         id="tspan130">e</tspan></text><text
       transform="matrix(0.78020634,-0.62552224,-0.62552224,-0.78020634,1880.9202,786.4043)"
       style="font-variant:normal;font-weight:bold;font-stretch:condensed;font-size:168.999px;font-family:'Geometr212 BkCn BT';-inkscape-font-specification:Geometric212BT-HeavyCondensed;writing-mode:lr-tb;fill:#26a9e0;fill-opacity:1;fill-rule:nonzero;stroke:none"
       id="text136"><tspan
         x="0"
         y="0"
         id="tspan134">v</tspan></text><text
       transform="matrix(0.86648313,-0.49920635,-0.49920635,-0.86648313,1991.1992,702.7656)"
       style="font-variant:normal;font-weight:bold;font-stretch:condensed;font-size:168.999px;font-family:'Geometr212 BkCn BT';-inkscape-font-specification:Geometric212BT-HeavyCondensed;writing-mode:lr-tb;fill:#26a9e0;fill-opacity:1;fill-rule:nonzero;stroke:none"
       id="text140"><tspan
         x="0"
         y="0"
         id="tspan138">e</tspan></text><text
       transform="matrix(0.95840953,-0.28539652,-0.28539652,-0.95840953,2206.1377,601.3049)"
       style="font-variant:normal;font-weight:bold;font-stretch:condensed;font-size:168.999px;font-family:'Geometr212 BkCn BT';-inkscape-font-specification:Geometric212BT-HeavyCondensed;writing-mode:lr-tb;fill:#26a9e0;fill-opacity:1;fill-rule:nonzero;stroke:none"
       id="text144"><tspan
         x="0"
         y="0"
         id="tspan142">i</tspan></text><text
       transform="matrix(0.98848072,-0.15134683,-0.15134683,-0.98848072,2302.3972,574.4011)"
       style="font-variant:normal;font-weight:bold;font-stretch:condensed;font-size:168.999px;font-family:'Geometr212 BkCn BT';-inkscape-font-specification:Geometric212BT-HeavyCondensed;writing-mode:lr-tb;fill:#26a9e0;fill-opacity:1;fill-rule:nonzero;stroke:none"
       id="text148"><tspan
         x="0"
         y="0"
         id="tspan146">n</tspan></text><text
       transform="matrix(0.9930001,0.11811352,0.11811352,-0.9930001,2550.6423,556.7548)"
       style="font-variant:normal;font-weight:bold;font-stretch:condensed;font-size:168.999px;font-family:'Geometr212 BkCn BT';-inkscape-font-specification:Geometric212BT-HeavyCondensed;writing-mode:lr-tb;fill:#26a9e0;fill-opacity:1;fill-rule:nonzero;stroke:none"
       id="text152"><tspan
         x="0"
         y="0"
         id="tspan150">S</tspan></text><text
       transform="matrix(0.96207564,0.2727828,0.2727828,-0.96207564,2700.5869,579.1357)"
       style="font-variant:normal;font-weight:bold;font-stretch:condensed;font-size:168.999px;font-family:'Geometr212 BkCn BT';-inkscape-font-specification:Geometric212BT-HeavyCondensed;writing-mode:lr-tb;fill:#26a9e0;fill-opacity:1;fill-rule:nonzero;stroke:none"
       id="text156"><tspan
         x="0"
         y="0"
         id="tspan154">c</tspan></text><text
       transform="matrix(0.91861398,0.39515612,0.39515612,-0.91861398,2835.0872,622.072)"
       style="font-variant:normal;font-weight:bold;font-stretch:condensed;font-size:168.999px;font-family:'Geometr212 BkCn BT';-inkscape-font-specification:Geometric212BT-HeavyCondensed;writing-mode:lr-tb;fill:#26a9e0;fill-opacity:1;fill-rule:nonzero;stroke:none"
       id="text160"><tspan
         x="0"
         y="0"
         id="tspan158">i</tspan></text><text
       transform="matrix(0.85811241,0.51346188,0.51346188,-0.85811241,2925.8118,663.1501)"
       style="font-variant:normal;font-weight:bold;font-stretch:condensed;font-size:168.999px;font-family:'Geometr212 BkCn BT';-inkscape-font-specification:Geometric212BT-HeavyCondensed;writing-mode:lr-tb;fill:#26a9e0;fill-opacity:1;fill-rule:nonzero;stroke:none"
       id="text164"><tspan
         x="0"
         y="0"
         id="tspan162">e</tspan></text><text
       transform="matrix(0.76249157,0.64699815,0.64699815,-0.76249157,3049.5222,741.8867)"
       style="font-variant:normal;font-weight:bold;font-stretch:condensed;font-size:168.999px;font-family:'Geometr212 BkCn BT';-inkscape-font-specification:Geometric212BT-HeavyCondensed;writing-mode:lr-tb;fill:#26a9e0;fill-opacity:1;fill-rule:nonzero;stroke:none"
       id="text168"><tspan
         x="0"
         y="0"
         id="tspan166">n</tspan></text><text
       transform="matrix(0.66097751,0.75040572,0.75040572,-0.66097751,3162.9824,844.9443)"
       style="font-variant:normal;font-weight:bold;font-stretch:condensed;font-size:168.999px;font-family:'Geometr212 BkCn BT';-inkscape-font-specification:Geometric212BT-HeavyCondensed;writing-mode:lr-tb;fill:#26a9e0;fill-opacity:1;fill-rule:nonzero;stroke:none"
       id="text172"><tspan
         x="0"
         y="0"
         id="tspan170">t</tspan></text><text
       transform="matrix(0.57198112,0.82026679,0.82026679,-0.57198112,3234.4104,930.8364)"
       style="font-variant:normal;font-weight:bold;font-stretch:condensed;font-size:168.999px;font-family:'Geometr212 BkCn BT';-inkscape-font-specification:Geometric212BT-HeavyCondensed;writing-mode:lr-tb;fill:#26a9e0;fill-opacity:1;fill-rule:nonzero;stroke:none"
       id="text176"><tspan
         x="0"
         y="0"
         id="tspan174">i</tspan></text><text
       transform="matrix(0.47663928,0.87909897,0.87909897,-0.47663928,3288.4453,1012.5471)"
       style="font-variant:normal;font-weight:bold;font-stretch:condensed;font-size:168.999px;font-family:'Geometr212 BkCn BT';-inkscape-font-specification:Geometric212BT-HeavyCondensed;writing-mode:lr-tb;fill:#26a9e0;fill-opacity:1;fill-rule:nonzero;stroke:none"
       id="text180"><tspan
         x="0"
         y="0"
         id="tspan178">f</tspan></text><text
       transform="matrix(0.37516623,0.92695755,0.92695755,-0.37516623,3338.1633,1110.7333)"
       style="font-variant:normal;font-weight:bold;font-stretch:condensed;font-size:168.999px;font-family:'Geometr212 BkCn BT';-inkscape-font-specification:Geometric212BT-HeavyCondensed;writing-mode:lr-tb;fill:#26a9e0;fill-opacity:1;fill-rule:nonzero;stroke:none"
       id="text184"><tspan
         x="0"
         y="0"
         id="tspan182">i</tspan></text><text
       transform="matrix(0.25144612,0.9678713,0.9678713,-0.25144612,3373.6653,1203.5793)"
       style="font-variant:normal;font-weight:bold;font-stretch:condensed;font-size:168.999px;font-family:'Geometr212 BkCn BT';-inkscape-font-specification:Geometric212BT-HeavyCondensed;writing-mode:lr-tb;fill:#26a9e0;fill-opacity:1;fill-rule:nonzero;stroke:none"
       id="text188"><tspan
         x="0"
         y="0"
         id="tspan186">c</tspan></text><g
       id="g190"><g
         id="g192"
         clip-path="url(#clipPath196)"><g
           id="g198"
           transform="translate(2409.0618,2092.1365)"><path
             d="m 0,0 c -5.088,-15.195 -9.797,-30.284 -14.719,-45.199 -4.892,-14.919 -9.916,-29.67 -15.186,-44.208 -5.27,-14.537 -10.783,-28.864 -16.665,-42.907 -2.955,-7.015 -5.954,-13.974 -9.11,-20.834 -3.101,-6.88 -6.373,-13.649 -9.692,-20.35 -9.023,-18.006 -18.85,-35.356 -29.701,-51.698 -0.349,-12.763 -2.126,-25.231 -5.367,-37.087 -10.074,-36.862 -32.8,-63.977 -63.987,-76.351 -0.551,-0.219 -1.094,-0.428 -1.65,-0.638 -20.837,-7.833 -43.842,-8.16 -66.281,-1.379 -4.662,-1.852 -9.383,-3.588 -14.164,-5.206 -3.36,-1.139 -6.749,-2.228 -10.166,-3.251 -3.41,-1.042 -6.848,-2.019 -10.313,-2.935 -6.934,-1.803 -13.945,-3.478 -21.053,-4.858 -14.201,-2.851 -28.725,-4.803 -43.453,-6.1 -7.365,-0.605 -14.784,-1.112 -22.244,-1.367 -7.461,-0.31 -14.962,-0.403 -22.498,-0.385 -15.074,0.063 -30.277,0.749 -45.569,1.942 -15.292,1.197 -30.673,2.897 -46.122,5.064 -7.729,1.072 -15.471,2.271 -23.24,3.574 -3.887,0.646 -7.772,1.34 -11.676,2.037 -1.952,0.348 -3.902,0.719 -5.854,1.099 -1.959,0.358 -3.909,0.758 -5.875,1.154 1.617,-1.193 3.289,-2.295 4.959,-3.413 1.68,-1.094 3.378,-2.161 5.084,-3.221 3.408,-2.12 6.884,-4.125 10.39,-6.087 7.018,-3.907 14.194,-7.539 21.486,-10.958 14.594,-6.805 29.665,-12.717 45.108,-17.719 15.445,-5 31.27,-9.089 47.391,-12.182 8.061,-1.562 16.199,-2.826 24.397,-3.874 8.201,-0.991 16.464,-1.793 24.774,-2.229 16.623,-0.952 33.442,-0.673 50.288,0.881 8.416,0.822 16.849,1.891 25.236,3.405 4.199,0.745 8.389,1.57 12.57,2.478 4.178,0.926 8.345,1.933 12.493,3.038 16.595,4.418 32.92,10.336 48.609,17.755 15.689,7.412 30.729,16.328 44.781,26.551 14.059,10.219 27.126,21.736 39.006,34.227 11.889,12.488 22.596,25.94 32.122,40.014 4.768,7.034 9.224,14.238 13.4,21.56 4.206,7.304 8.073,14.765 11.717,22.289 1.831,3.758 3.554,7.559 5.235,11.369 1.676,3.813 3.314,7.631 4.857,11.483 3.078,7.705 5.962,15.453 8.547,23.276 2.63,7.803 4.958,15.681 7.131,23.566 2.112,7.907 4.07,15.823 5.754,23.783 3.41,15.905 5.982,31.895 7.781,47.903 1.8,16.01 2.824,32.041 3.117,48.045 C 1.908,-31.934 1.508,-15.955 0,0 -5.088,-15.195 1.508,-15.955 0,0"
             style="fill:#f6921e;fill-opacity:1;fill-rule:nonzero;stroke:none"
             id="path200" /></g><g
           id="g202"
           transform="translate(2222.4915,1807.3802)"><path
             d="m 0,0 c 35.613,13.387 49.672,63.644 31.398,112.254 -18.272,48.607 -61.956,77.159 -97.57,63.771 -35.615,-13.387 -49.673,-63.646 -31.4,-112.254 C -79.3,15.162 -35.615,-13.39 0,0"
             style="fill:#f6921e;fill-opacity:1;fill-rule:nonzero;stroke:none"
             id="path204" /></g><g
           id="g206"
           transform="translate(2153.7317,1400.4922)"><path
             d="m 0,0 c -1.82,17.285 -5.261,34.359 -10.139,50.892 -4.87,16.541 -11.167,32.54 -18.592,47.826 -3.707,7.647 -7.717,15.108 -11.971,22.386 -4.223,7.294 -8.751,14.372 -13.444,21.291 -2.34,3.464 -4.77,6.858 -7.229,10.218 -2.464,3.358 -4.952,6.685 -7.517,9.948 -5.133,6.518 -10.401,12.89 -15.883,19.039 -5.442,6.181 -11.101,12.135 -16.843,17.96 -5.792,5.782 -11.669,11.435 -17.721,16.874 -12.069,10.906 -24.629,21.128 -37.593,30.69 -12.966,9.564 -26.338,18.466 -40.051,26.722 -13.734,8.229 -27.772,15.873 -42.344,22.544 10.615,-12.003 21.329,-23.626 31.786,-35.346 10.472,-11.697 20.736,-23.423 30.691,-35.256 9.954,-11.832 19.606,-23.77 28.825,-35.886 4.598,-6.066 9.126,-12.142 13.489,-18.306 4.408,-6.125 8.634,-12.344 12.777,-18.568 11.434,-17.35 21.837,-35.09 30.749,-53.24 10.202,-6.418 19.517,-13.814 27.696,-22.075 26.676,-26.942 38.701,-59.92 33.861,-92.856 -0.086,-0.581 -0.175,-1.152 -0.271,-1.735 -3.522,-21.279 -14.22,-40.784 -30.514,-56.511 -0.779,-5.556 -1.721,-11.105 -2.828,-16.643 -0.694,-3.48 -1.445,-6.959 -2.268,-10.429 -0.803,-3.475 -1.676,-6.942 -2.615,-10.4 -1.905,-6.907 -3.959,-13.816 -6.32,-20.662 -4.631,-13.724 -10.202,-27.276 -16.443,-40.681 -3.158,-6.681 -6.428,-13.358 -9.937,-19.947 -3.463,-6.616 -7.133,-13.159 -10.917,-19.678 -7.591,-13.021 -15.786,-25.845 -24.466,-38.491 -8.682,-12.647 -17.846,-25.115 -27.446,-37.411 -4.793,-6.158 -9.702,-12.262 -14.716,-18.34 -2.503,-3.043 -5.047,-6.06 -7.602,-9.093 -1.277,-1.518 -2.574,-3.019 -3.878,-4.521 -1.29,-1.516 -2.611,-3.006 -3.936,-4.51 1.841,0.804 3.63,1.702 5.434,2.587 1.787,0.91 3.56,1.847 5.331,2.794 3.54,1.891 7.015,3.898 10.467,5.955 6.892,4.123 13.626,8.522 20.233,13.129 13.191,9.236 25.846,19.33 37.899,30.203 12.052,10.877 23.506,22.536 34.245,34.952 5.384,6.199 10.547,12.615 15.554,19.192 4.958,6.606 9.785,13.361 14.318,20.34 9.135,13.921 17.303,28.624 24.38,43.99 3.496,7.7 6.788,15.538 9.67,23.558 1.453,4.008 2.834,8.05 4.138,12.124 1.288,4.082 2.499,8.195 3.615,12.339 4.472,16.581 7.509,33.678 8.93,50.974 C 2.028,-34.764 1.827,-17.282 0,0"
             style="fill:#26a9e0;fill-opacity:1;fill-rule:nonzero;stroke:none"
             id="path208" /></g><g
           id="g210"
           transform="translate(2067.7271,1392.9299)"><path
             d="m 0,0 c 6.213,37.535 -30.282,74.839 -81.516,83.319 -51.232,8.479 -97.8,-15.076 -104.013,-52.614 -6.213,-37.536 30.282,-74.84 81.515,-83.319 C -52.781,-61.094 -6.213,-37.538 0,0"
             style="fill:#26a9e0;fill-opacity:1;fill-rule:nonzero;stroke:none"
             id="path212" /></g><g
           id="g214"
           transform="translate(2570.4768,824.2232)"><path
             d="m 0,0 c -0.125,8.032 -0.567,16.062 -1.252,24.087 -1.404,16.042 -3.819,32.049 -7.209,47.924 -3.393,15.875 -7.764,31.626 -13.146,47.134 -2.677,7.762 -5.653,15.441 -8.844,23.065 -3.242,7.598 -6.679,15.155 -10.456,22.57 -7.489,14.872 -16.138,29.297 -25.907,43.109 -4.92,6.879 -10.063,13.648 -15.568,20.154 -2.744,3.263 -5.554,6.478 -8.43,9.646 -2.892,3.155 -5.848,6.26 -8.876,9.299 -12.126,12.164 -25.412,23.343 -39.682,33.22 -14.265,9.881 -29.505,18.447 -45.385,25.506 -15.879,7.067 -32.386,12.625 -49.143,16.667 -16.76,4.053 -33.764,6.6 -50.715,7.81 -8.476,0.613 -16.943,0.871 -25.372,0.827 -8.43,-0.011 -16.823,-0.392 -25.161,-0.998 -4.169,-0.295 -8.324,-0.701 -12.463,-1.15 -4.141,-0.456 -8.266,-0.947 -12.373,-1.537 -8.214,-1.187 -16.365,-2.563 -24.431,-4.236 -8.073,-1.623 -16.06,-3.547 -23.975,-5.607 -7.904,-2.124 -15.738,-4.388 -23.474,-6.909 -15.48,-4.999 -30.612,-10.766 -45.376,-17.211 -14.765,-6.447 -29.159,-13.577 -43.166,-21.325 -13.994,-7.78 -27.632,-16.116 -40.695,-25.397 15.702,3.19 31.124,6.657 46.502,9.852 15.366,3.223 30.653,6.248 45.878,8.951 15.224,2.707 30.388,5.095 45.491,7.022 7.553,0.947 15.079,1.831 22.598,2.529 7.509,0.754 15.008,1.304 22.469,1.779 20.242,1.199 40.312,1.359 60.018,0.105 11.106,5.983 22.661,10.608 34.412,13.693 36.897,9.691 71.685,3.577 97.951,-17.211 0.464,-0.367 0.917,-0.73 1.376,-1.108 17.088,-14.036 28.823,-33.637 34.198,-56.278 4.037,-3.185 8.001,-6.485 11.888,-9.9 2.667,-2.341 5.304,-4.732 7.898,-7.179 2.608,-2.433 5.173,-4.921 7.7,-7.465 5.028,-5.101 9.983,-10.335 14.733,-15.803 9.569,-10.874 18.521,-22.475 27.008,-34.581 4.208,-6.076 8.356,-12.247 12.307,-18.58 3.999,-6.307 7.828,-12.757 11.582,-19.292 7.481,-13.087 14.491,-26.596 21.104,-40.434 6.607,-13.843 12.827,-28.012 18.674,-42.474 2.937,-7.23 5.768,-14.534 8.525,-21.915 1.385,-3.69 2.725,-7.4 4.074,-11.131 0.675,-1.864 1.327,-3.737 1.975,-5.618 0.669,-1.875 1.3,-3.766 1.938,-5.665 0.225,1.997 0.342,3.995 0.477,6.001 0.107,2.002 0.181,4.005 0.245,6.013 C 0.055,-8.029 0.055,-4.017 0,0"
             style="fill:#a1bc30;fill-opacity:1;fill-rule:nonzero;stroke:none"
             id="path216" /></g><g
           id="g218"
           transform="translate(2229.9126,906.3561)"><path
             d="m 0,0 c 29.401,-24.152 79.955,-11.197 112.914,28.934 32.96,40.126 35.844,92.233 6.442,116.384 C 89.956,169.466 39.403,156.512 6.442,116.384 -26.518,76.255 -29.402,24.147 0,0"
             style="fill:#a1bc30;fill-opacity:1;fill-rule:nonzero;stroke:none"
             id="path220" /></g><g
           id="g222"
           transform="translate(3108.6313,1193.4084)"><path
             d="m 0,0 c -1.679,1.093 -3.379,2.16 -5.085,3.221 -3.407,2.12 -6.882,4.126 -10.388,6.086 -7.019,3.908 -14.195,7.54 -21.487,10.958 -14.594,6.806 -29.665,12.716 -45.108,17.721 -15.443,4.998 -31.269,9.087 -47.392,12.181 -8.059,1.562 -16.198,2.826 -24.397,3.873 -8.201,0.992 -16.463,1.793 -24.773,2.23 -16.624,0.951 -33.443,0.673 -50.288,-0.881 -8.416,-0.822 -16.85,-1.891 -25.236,-3.404 -4.199,-0.747 -8.388,-1.573 -12.571,-2.479 -4.178,-0.926 -8.344,-1.933 -12.49,-3.038 -16.596,-4.42 -32.922,-10.336 -48.612,-17.755 -15.689,-7.412 -30.728,-16.329 -44.78,-26.551 -14.061,-10.218 -27.126,-21.735 -39.006,-34.227 -11.89,-12.487 -22.596,-25.941 -32.122,-40.015 -4.769,-7.033 -9.225,-14.236 -13.401,-21.559 -4.206,-7.304 -8.072,-14.765 -11.716,-22.289 -1.83,-3.758 -3.555,-7.559 -5.235,-11.369 -1.676,-3.813 -3.313,-7.631 -4.857,-11.483 -3.078,-7.706 -5.962,-15.454 -8.547,-23.276 -2.631,-7.803 -4.958,-15.681 -7.132,-23.567 -2.111,-7.906 -4.068,-15.822 -5.753,-23.784 -3.411,-15.903 -5.981,-31.892 -7.781,-47.902 -1.799,-16.011 -2.824,-32.04 -3.117,-48.044 -0.26,-16.01 0.141,-31.988 1.648,-47.942 5.086,15.194 9.795,30.283 14.719,45.199 4.891,14.918 9.915,29.67 15.186,44.207 5.271,14.538 10.784,28.863 16.666,42.906 2.955,7.015 5.954,13.974 9.109,20.836 3.099,6.878 6.374,13.648 9.692,20.348 9.023,18.009 18.85,35.358 29.702,51.7 0.348,12.763 2.125,25.229 5.367,37.087 10.071,36.86 32.798,63.976 63.984,76.35 0.553,0.218 1.096,0.427 1.651,0.638 20.839,7.833 43.842,8.16 66.281,1.379 4.661,1.852 9.384,3.589 14.164,5.206 3.362,1.139 6.751,2.229 10.168,3.25 3.409,1.041 6.848,2.019 10.314,2.935 6.933,1.805 13.941,3.479 21.051,4.859 14.201,2.851 28.727,4.802 43.453,6.1 7.366,0.606 14.783,1.112 22.242,1.366 7.463,0.311 14.965,0.404 22.5,0.387 15.074,-0.065 30.279,-0.75 45.569,-1.943 15.292,-1.196 30.673,-2.898 46.12,-5.063 7.732,-1.073 15.472,-2.273 23.242,-3.576 3.888,-0.644 7.771,-1.341 11.676,-2.036 1.953,-0.347 3.901,-0.72 5.855,-1.1 C 1.043,-2.618 2.994,-3.018 4.958,-3.413 3.341,-2.22 1.67,-1.12 0,0"
             style="fill:#ec297b;fill-opacity:1;fill-rule:nonzero;stroke:none"
             id="path224" /></g><g
           id="g226"
           transform="translate(2851.7471,948.8441)"><path
             d="m 0,0 c 35.615,13.386 49.673,63.644 31.401,112.253 -18.272,48.609 -61.957,77.16 -97.573,63.771 C -101.784,162.638 -115.843,112.38 -97.57,63.771 -79.297,15.163 -35.614,-13.388 0,0"
             style="fill:#ec297b;fill-opacity:1;fill-rule:nonzero;stroke:none"
             id="path228" /></g><g
           id="g230"
           transform="translate(3031.1858,1305.9678)"><path
             d="m 0,0 c -9.956,11.833 -19.607,23.77 -28.825,35.886 -4.599,6.067 -9.125,12.143 -13.491,18.306 -4.406,6.125 -8.631,12.345 -12.775,18.569 -11.435,17.35 -21.838,35.09 -30.75,53.241 -10.202,6.417 -19.517,13.814 -27.695,22.074 -26.675,26.941 -38.702,59.921 -33.861,92.856 0.086,0.581 0.175,1.152 0.271,1.735 3.522,21.279 14.22,40.784 30.514,56.51 0.779,5.556 1.72,11.105 2.827,16.644 0.693,3.481 1.445,6.96 2.269,10.43 0.801,3.473 1.677,6.939 2.615,10.4 1.904,6.905 3.959,13.814 6.319,20.66 4.632,13.724 10.203,27.278 16.443,40.682 3.158,6.681 6.428,13.358 9.939,19.946 3.46,6.618 7.132,13.159 10.916,19.677 7.591,13.022 15.787,25.848 24.464,38.493 8.683,12.646 17.847,25.115 27.446,37.41 4.793,6.158 9.704,12.263 14.717,18.341 2.503,3.043 5.047,6.059 7.602,9.093 1.278,1.517 2.574,3.019 3.88,4.519 1.29,1.518 2.611,3.008 3.935,4.511 -1.84,-0.804 -3.63,-1.701 -5.434,-2.588 -1.787,-0.907 -3.561,-1.845 -5.332,-2.793 -3.54,-1.89 -7.015,-3.898 -10.466,-5.953 -6.893,-4.124 -13.626,-8.523 -20.232,-13.129 -13.192,-9.236 -25.846,-19.332 -37.899,-30.204 -12.054,-10.877 -23.507,-22.537 -34.246,-34.952 -5.385,-6.2 -10.547,-12.616 -15.554,-19.192 -4.961,-6.606 -9.785,-13.362 -14.317,-20.34 -9.136,-13.92 -17.304,-28.624 -24.382,-43.991 -3.496,-7.699 -6.787,-15.538 -9.669,-23.557 -1.454,-4.009 -2.835,-8.05 -4.139,-12.126 -1.286,-4.081 -2.497,-8.193 -3.615,-12.336 -4.472,-16.582 -7.509,-33.679 -8.929,-50.976 -1.425,-17.294 -1.223,-34.776 0.604,-52.057 1.819,-17.285 5.261,-34.36 10.14,-50.894 4.869,-16.54 11.165,-32.538 18.591,-47.824 3.706,-7.647 7.716,-15.108 11.97,-22.386 4.223,-7.295 8.751,-14.373 13.446,-21.291 2.337,-3.464 4.767,-6.858 7.227,-10.218 2.465,-3.357 4.953,-6.685 7.516,-9.948 5.136,-6.519 10.402,-12.891 15.884,-19.04 5.443,-6.179 11.102,-12.134 16.844,-17.958 5.793,-5.783 11.669,-11.436 17.72,-16.875 12.069,-10.907 24.63,-21.127 37.594,-30.692 12.966,-9.562 26.336,-18.464 40.051,-26.72 13.734,-8.23 27.771,-15.873 42.342,-22.545 C 51.862,-58.599 41.147,-46.976 30.69,-35.256 20.217,-23.559 9.954,-11.833 0,0"
             style="fill:#2b388f;fill-opacity:1;fill-rule:nonzero;stroke:none"
             id="path232" /></g><g
           id="g234"
           transform="translate(3125.8689,1508.6132)"><path
             d="m 0,0 c 6.213,37.536 -30.281,74.841 -81.514,83.32 -51.233,8.48 -97.801,-15.076 -104.015,-52.614 -6.212,-37.536 30.283,-74.838 81.517,-83.32 C -52.781,-61.092 -6.213,-37.537 0,0"
             style="fill:#2b388f;fill-opacity:1;fill-rule:nonzero;stroke:none"
             id="path236" /></g><g
           id="g238"
           transform="translate(2952.1877,1851.5248)"><path
             d="m 0,0 c -15.368,-3.221 -30.653,-6.248 -45.879,-8.951 -15.223,-2.706 -30.388,-5.094 -45.491,-7.021 -7.553,-0.948 -15.077,-1.831 -22.598,-2.529 -7.508,-0.755 -15.008,-1.304 -22.469,-1.78 -20.24,-1.198 -40.312,-1.359 -60.019,-0.105 -11.106,-5.981 -22.66,-10.606 -34.412,-13.691 -36.896,-9.691 -71.684,-3.578 -97.949,17.209 -0.464,0.367 -0.916,0.732 -1.376,1.109 -17.089,14.036 -28.823,33.637 -34.199,56.279 -4.037,3.184 -8.001,6.484 -11.887,9.899 -2.668,2.341 -5.306,4.731 -7.899,7.179 -2.607,2.432 -5.173,4.921 -7.699,7.465 -5.027,5.102 -9.984,10.335 -14.732,15.803 -9.569,10.873 -18.523,22.475 -27.011,34.581 -4.206,6.076 -8.353,12.246 -12.305,18.579 -4.001,6.307 -7.83,12.757 -11.582,19.292 -7.482,13.086 -14.492,26.596 -21.103,40.435 -6.611,13.843 -12.827,28.013 -18.676,42.474 -2.936,7.23 -5.77,14.534 -8.525,21.914 -1.384,3.69 -2.724,7.401 -4.074,11.13 -0.674,1.865 -1.329,3.739 -1.975,5.62 -0.669,1.875 -1.298,3.765 -1.938,5.664 -0.224,-1.997 -0.343,-3.995 -0.475,-6 -0.108,-2.001 -0.184,-4.007 -0.248,-6.014 -0.133,-4.012 -0.132,-8.025 -0.077,-12.041 0.124,-8.031 0.567,-16.063 1.254,-24.087 1.402,-16.042 3.818,-32.048 7.207,-47.923 3.393,-15.876 7.764,-31.625 13.147,-47.134 2.677,-7.762 5.651,-15.442 8.844,-23.066 3.241,-7.598 6.679,-15.154 10.456,-22.569 7.487,-14.871 16.138,-29.297 25.906,-43.109 4.921,-6.878 10.064,-13.647 15.566,-20.154 2.747,-3.263 5.555,-6.478 8.433,-9.646 2.89,-3.155 5.845,-6.261 8.877,-9.3 12.124,-12.163 25.41,-23.342 39.679,-33.221 14.267,-9.88 29.508,-18.446 45.386,-25.505 15.879,-7.067 32.387,-12.624 49.145,-16.666 16.759,-4.053 33.763,-6.599 50.714,-7.812 8.473,-0.612 16.942,-0.87 25.371,-0.826 8.429,0.011 16.824,0.393 25.162,0.999 4.169,0.293 8.322,0.701 12.463,1.15 4.14,0.456 8.265,0.947 12.373,1.537 8.212,1.186 16.363,2.563 24.43,4.235 8.074,1.623 16.059,3.546 23.975,5.607 7.904,2.126 15.737,4.387 23.474,6.909 15.481,4.999 30.612,10.767 45.376,17.212 14.766,6.448 29.16,13.575 43.167,21.324 C 19.801,-7.765 33.439,0.571 46.502,9.854 30.8,6.662 15.377,3.195 0,0"
             style="fill:#a1bc30;fill-opacity:1;fill-rule:nonzero;stroke:none"
             id="path240" /></g><g
           id="g242"
           transform="translate(2771.7124,1909.5099)"><path
             d="M 0,0 C 32.959,40.128 35.844,92.235 6.442,116.383 -22.957,140.534 -73.513,127.58 -106.473,87.45 -139.432,47.322 -142.317,-4.786 -112.915,-28.936 -83.514,-53.084 -32.961,-40.13 0,0"
             style="fill:#a1bc30;fill-opacity:1;fill-rule:nonzero;stroke:none"
             id="path244" /></g><g
           id="g246"
           transform="translate(2560.4087,1479.9036)"><path
             d="m 0,0 c -12.057,-3.098 -23.203,-0.142 -33.822,5.888 l 35.671,6.579 c 0,0 -39.071,-1.871 -43.318,0.028 2.872,0.515 5.997,0.774 8.756,1.722 5.858,2.089 11.665,4.58 17.457,6.925 9.351,3.741 18.242,2.899 26.731,-2.44 C 17.746,14.782 23.154,10.064 28.092,3.517 17.777,5.927 8.999,2.25 0,0 m -40.217,-58.59 c -3.574,-3.812 -8.189,-5.271 -13.299,-5.528 l 11.139,10.364 c 0,0 -13.409,-9.47 -15.335,-9.748 0.902,0.825 1.941,1.62 2.705,2.582 1.597,2.055 3.102,4.248 4.622,6.391 2.467,3.43 5.806,5.13 10.023,5.157 3.103,0.029 6.081,-0.432 9.306,-1.639 -4.202,-1.468 -6.478,-4.752 -9.161,-7.579 m -15.676,16.605 c -0.161,-6.036 -3.026,-10.84 -7.242,-14.989 l 1.657,17.502 c 0,0 -4.295,-18.472 -5.747,-20.187 0.145,1.398 0.428,2.883 0.355,4.305 -0.203,3.002 -0.584,6.05 -0.916,9.06 -0.511,4.863 1.065,8.889 4.681,12.152 2.657,2.406 5.584,4.3 9.298,5.73 -2.506,-4.494 -1.95,-9.078 -2.086,-13.573 m 17.548,76.057 22.08,30.195 c 0,0 -27.976,-29.06 -32.477,-30.668 1.795,2.449 3.943,4.77 5.331,7.471 2.935,5.707 5.495,11.69 8.183,17.567 4.309,9.425 11.567,15.059 21.752,17.095 7.486,1.52 14.881,1.841 23.208,0.397 C 0.274,70.643 -3.691,61.637 -8.855,53.558 -15.7,42.751 -26.091,37.12 -38.345,34.072 M -75.678,44.294 -97.75,75.105 c 0,0 19.131,-36.12 19.222,-40.983 -1.756,2.488 -3.4,5.329 -5.516,7.522 -4.584,4.606 -9.515,8.995 -14.308,13.43 -7.693,7.185 -10.841,15.963 -9.566,26.368 0.917,7.675 2.979,14.883 6.983,22.462 2.3,-10.834 9.673,-17.499 15.808,-25.005 8.28,-10.03 10.435,-21.885 9.449,-34.605 M -96.656,19.3 c -7.632,0.17 -15.357,-0.214 -23.034,-0.396 -12.316,-0.286 -22.102,4.53 -29.58,14.359 -5.518,7.208 -9.704,14.95 -12.486,24.588 10.774,-7.239 22.462,-6.804 33.784,-8.121 15.104,-1.688 26.534,-9.875 36.156,-21.373 l -43.75,7.885 c 0,0 45.598,-14.787 49.659,-18.755 -3.553,0.646 -7.148,1.734 -10.749,1.813 m 2.345,-35.715 -11.311,15.49 c 0,0 9.851,-18.19 9.913,-20.65 -0.898,1.244 -1.741,2.673 -2.824,3.773 -2.337,2.308 -4.859,4.519 -7.307,6.742 -3.927,3.596 -5.558,8.025 -4.958,13.301 0.424,3.889 1.44,7.549 3.435,11.404 1.206,-5.479 4.977,-8.822 8.113,-12.591 4.236,-5.039 5.377,-11.029 4.939,-17.469 m -19.34,-7.502 -23.482,0.283 c 0,0 25.051,-3.713 27.515,-5.424 -1.905,0.021 -3.877,0.274 -5.764,-0.004 -3.987,-0.582 -7.979,-1.451 -11.959,-2.216 -6.394,-1.23 -11.915,0.424 -16.67,4.89 -3.503,3.274 -6.36,6.932 -8.657,11.718 6.254,-2.833 12.298,-1.58 18.31,-1.278 8.021,0.442 14.686,-2.823 20.707,-7.969 m 45.025,208.251 c -108.313,0 -196.051,-87.772 -196.051,-196.066 0,-32.721 8.219,-63.405 22.369,-90.477 42.86,3.078 85.679,-0.381 125.357,-10.547 l -0.092,0.088 c 39.86,-9.248 32.281,23.447 32.281,23.447 l 0.046,-0.089 c -0.962,5.115 -1.757,10.322 -2.33,15.65 0,0 -3.499,43.742 -34.302,61.803 0,0 21.586,-4.291 33.609,-28.726 4.775,78.33 52.763,140.701 54.811,144.024 -0.374,-0.607 -26.388,-50.231 -36.925,-107.999 8.285,13.301 22.302,27.645 45.71,33.833 0,0 -48.724,-22.602 -50.064,-75.725 -0.115,-7.632 0.187,-15.242 0.997,-22.736 0.178,-1.654 0.423,-3.324 0.678,-4.993 6.468,14.726 18.725,18.951 18.725,18.951 -7.203,-5.654 -11.465,-13.401 -13.983,-20.875 -0.012,-0.04 -2.995,-9.115 3.073,-27.042 2.051,-5.344 4.374,-10.605 6.982,-15.661 0.208,-0.402 8.901,-17.129 39.24,-24.069 3.68,-0.787 7.311,-1.49 10.519,-1.98 0.168,-0.026 0.283,-0.008 0.434,-0.03 25.036,-4.32 50.92,-5.882 77.567,-4.561 35.264,35.369 57.444,83.763 57.444,137.714 0,108.294 -87.758,196.066 -196.095,196.066"
             style="fill:#db921a;fill-opacity:1;fill-rule:nonzero;stroke:none"
             id="path248" /></g><g
           id="g250"
           transform="translate(2491.7937,1155.5936)"><path
             d="m 0,0 c 146.47,0 269.096,100.934 302.94,236.933 -27.433,-32.302 -103.411,-71.672 -144.574,-75.614 -61.225,-6.044 -118.89,3.104 -168.179,22.568 -50.216,20.569 -109.696,29.662 -172.521,23.504 -35.135,-3.442 -71.981,-11.296 -102.572,-22.844 C -235.976,75.83 -126.95,0 0,0"
             style="fill:#a1bc30;fill-opacity:1;fill-rule:evenodd;stroke:none"
             id="path252" /></g><g
           id="g254"
           transform="translate(2673.7676,1349.103)"><path
             d="m 0,0 11.33,-8.374 c 0.625,0.241 1.213,0.521 1.84,0.741 z"
             style="fill:#db921a;fill-opacity:1;fill-rule:nonzero;stroke:none"
             id="path256" /></g><g
           id="g258"
           transform="translate(2798.645,1526.818)"><path
             d="M 0,0 C -0.633,3.423 -1.404,6.811 -2.175,10.192 L -93.998,-14.316 Z"
             style="fill:#db921a;fill-opacity:1;fill-rule:nonzero;stroke:none"
             id="path260" /></g><g
           id="g262"
           transform="translate(2804.0852,1462.8469)"><path
             d="m 0,0 c 0.023,1.777 0.261,3.529 0.261,5.325 0,1.693 -0.222,3.357 -0.238,5.092 L -94.863,5.188 Z"
             style="fill:#db921a;fill-opacity:1;fill-rule:nonzero;stroke:none"
             id="path264" /></g><g
           id="g266"
           transform="translate(2694.188,1388.6838)"><path
             d="m 0,0 46.082,-21.059 c 2.079,1.258 3.889,2.583 5.907,3.866 z"
             style="fill:#db921a;fill-opacity:1;fill-rule:nonzero;stroke:none"
             id="path268" /></g><g
           id="g270"
           transform="translate(2705.3496,1426.856)"><path
             d="m 0,0 82.226,-20.593 7.098,8.392 z"
             style="fill:#db921a;fill-opacity:1;fill-rule:nonzero;stroke:none"
             id="path272" /></g><g
           id="g274"
           transform="translate(2293.0042,1381.1552)"><path
             d="m 0,0 -27.564,-10.241 c 3.846,0.726 7.677,1.565 11.558,2.201 z"
             style="fill:#db921a;fill-opacity:1;fill-rule:nonzero;stroke:none"
             id="path276" /></g><g
           id="g278"
           transform="translate(2184.978,1409.1315)"><path
             d="m 0,0 c 0.664,-3.423 1.443,-6.802 2.222,-10.207 l 92.213,24.62 z"
             style="fill:#db921a;fill-opacity:1;fill-rule:nonzero;stroke:none"
             id="path280" /></g><g
           id="g282"
           transform="translate(2371.7771,1756.7784)"><path
             d="M 0,0 C -3.208,-1.344 -6.28,-2.952 -9.465,-4.385 L 33.378,-89.652 Z"
             style="fill:#db921a;fill-opacity:1;fill-rule:nonzero;stroke:none"
             id="path284" /></g><g
           id="g286"
           transform="translate(2433.1699,1775.0453)"><path
             d="m 0,0 c -3.475,-0.642 -6.868,-1.412 -10.268,-2.173 l 24.65,-92.261 z"
             style="fill:#db921a;fill-opacity:1;fill-rule:nonzero;stroke:none"
             id="path288" /></g><g
           id="g290"
           transform="translate(2274.7058,1692.7848)"><path
             d="m 0,0 c -2.489,-2.468 -4.98,-4.939 -7.424,-7.45 l 71.17,-63.726 z"
             style="fill:#db921a;fill-opacity:1;fill-rule:nonzero;stroke:none"
             id="path292" /></g><g
           id="g294"
           transform="translate(2321.1975,1729.8667)"><path
             d="M 0,0 C -2.905,-1.891 -5.779,-3.883 -8.659,-5.889 L 49.102,-81.924 Z"
             style="fill:#db921a;fill-opacity:1;fill-rule:nonzero;stroke:none"
             id="path296" /></g><g
           id="g298"
           transform="translate(2780.387,1588.1202)"><path
             d="M 0,0 C -1.329,3.227 -2.912,6.314 -4.363,9.492 L -89.278,-33.233 Z"
             style="fill:#db921a;fill-opacity:1;fill-rule:nonzero;stroke:none"
             id="path300" /></g><g
           id="g302"
           transform="translate(2202.8254,1587.1808)"><path
             d="m 0,0 c -1.315,-3.222 -2.362,-6.566 -3.591,-9.811 l 90.553,-29.96 z"
             style="fill:#db921a;fill-opacity:1;fill-rule:nonzero;stroke:none"
             id="path304" /></g><g
           id="g306"
           transform="translate(2179.4805,1473.2841)"><path
             d="m 0,0 c -0.019,-1.735 -0.232,-3.42 -0.232,-5.112 0,-1.815 0.232,-3.571 0.256,-5.366 l 95.302,5.228 z"
             style="fill:#db921a;fill-opacity:1;fill-rule:nonzero;stroke:none"
             id="path308" /></g><g
           id="g310"
           transform="translate(2185.9331,1532.4227)"><path
             d="m 0,0 c -0.719,-3.389 -1.146,-6.884 -1.705,-10.314 l 94.478,-12.93 z"
             style="fill:#db921a;fill-opacity:1;fill-rule:nonzero;stroke:none"
             id="path312" /></g><g
           id="g314"
           transform="translate(2233.1348,1643.5881)"><path
             d="M 0,0 C -1.963,-2.883 -3.655,-5.951 -5.527,-8.916 L 77.051,-56.668 Z"
             style="fill:#db921a;fill-opacity:1;fill-rule:nonzero;stroke:none"
             id="path316" /></g><g
           id="g318"
           transform="translate(2667.4326,1726.6824)"><path
             d="M 0,0 C -2.887,1.951 -5.919,3.647 -8.854,5.507 L -56.518,-76.868 Z"
             style="fill:#db921a;fill-opacity:1;fill-rule:nonzero;stroke:none"
             id="path320" /></g><g
           id="g322"
           transform="translate(2716.4724,1685.1335)"><path
             d="M 0,0 C -2.42,2.51 -4.835,4.935 -7.342,7.365 L -70.85,-63.525 Z"
             style="fill:#db921a;fill-opacity:1;fill-rule:nonzero;stroke:none"
             id="path324" /></g><g
           id="g326"
           transform="translate(2753.55,1638.6721)"><path
             d="M 0,0 C -1.926,2.908 -3.875,5.771 -5.853,8.641 L -81.625,-48.94 Z"
             style="fill:#db921a;fill-opacity:1;fill-rule:nonzero;stroke:none"
             id="path328" /></g><g
           id="g330"
           transform="translate(2546.1216,1775.7101)"><path
             d="M 0,0 -12.904,-94.409 10.283,-1.768 C 6.907,-1.032 3.415,-0.645 0,0"
             style="fill:#db921a;fill-opacity:1;fill-rule:nonzero;stroke:none"
             id="path332" /></g><g
           id="g334"
           transform="translate(2601.2495,1760.6061)"><path
             d="M 0,0 -29.871,-90.374 9.855,-3.572 C 6.609,-2.254 3.271,-1.208 0,0"
             style="fill:#db921a;fill-opacity:1;fill-rule:nonzero;stroke:none"
             id="path336" /></g><g
           id="g338"
           transform="translate(2497.2117,1780.4503)"><path
             d="m 0,0 c -1.792,0.011 -3.57,0.261 -5.418,0.261 -1.677,0 -3.304,-0.219 -4.992,-0.25 l 5.229,-95.26 z"
             style="fill:#db921a;fill-opacity:1;fill-rule:nonzero;stroke:none"
             id="path340" /></g></g></g><text
       transform="matrix(1,0,0,-1,2312.5391,1235.3662)"
       style="font-variant:normal;font-weight:600;font-stretch:normal;font-size:72.7583px;font-family:'Poppins SemiBold';-inkscape-font-specification:Poppins-SemiBold;writing-mode:lr-tb;fill:#ffffff;fill-opacity:1;fill-rule:nonzero;stroke:none"
       id="text344"><tspan
         x="0 26.338505 72.903816 116.48604 163.05135 198.41188 240.17516 287.177 334.17886"
         y="0"
         sodipodi:role="line"
         id="tspan342">1636/2006</tspan></text></g></svg>
