<?xml version="1.0" standalone="no"?>
<!DOCTYPE svg PUBLIC "-//W3C//DTD SVG 20010904//EN"
 "http://www.w3.org/TR/2001/REC-SVG-20010904/DTD/svg10.dtd">
<svg version="1.0" xmlns="http://www.w3.org/2000/svg"
 width="20834.000000pt" height="12500.000000pt" viewBox="0 0 20834.000000 12500.000000"
 preserveAspectRatio="xMidYMid meet">
<metadata>
Created by potrace 1.16, written by Peter Selinger 2001-2019
</metadata>
<g transform="translate(0.000000,12500.000000) scale(0.100000,-0.100000)"
fill="#000000" stroke="none">
<path d="M126825 77256 c-1286 -629 -2860 -1827 -4039 -3074 -1096 -1160
-1929 -2333 -2584 -3642 -1155 -2304 -1568 -4726 -1221 -7155 386 -2711 1734
-5324 3930 -7625 1405 -1471 3172 -2810 5044 -3820 264 -143 931 -473 945
-468 12 4 -66 92 -685 778 -800 886 -1158 1290 -1596 1800 -1741 2032 -2941
3747 -3788 5416 l-103 201 -161 109 c-575 385 -1056 829 -1462 1349 -103 131
-309 439 -393 585 -307 537 -495 1101 -568 1700 -26 206 -26 687 -1 890 85
681 289 1239 661 1805 154 234 286 399 512 640 l131 140 17 115 c207 1394 690
2866 1436 4375 890 1800 2253 3802 3859 5669 230 267 245 285 239 291 -2 2
-80 -33 -173 -79z"/>
<path d="M125745 66404 c-171 -10 -424 -37 -584 -64 -1275 -215 -2254 -925
-2566 -1862 -296 -888 -8 -1834 792 -2609 682 -660 1667 -1105 2745 -1239 468
-58 981 -51 1427 21 1042 166 1903 666 2363 1369 257 393 386 885 350 1339
-46 585 -299 1125 -764 1633 -633 690 -1658 1196 -2748 1358 -292 43 -760 68
-1015 54z"/>
<path d="M120792 52090 c-2414 -94 -4545 -759 -6407 -2001 -687 -459 -1199
-880 -1810 -1493 -655 -656 -1179 -1304 -1684 -2084 -1609 -2480 -2527 -5624
-2662 -9115 -13 -345 -7 -1509 10 -1767 23 -351 44 -606 51 -619 8 -14 55 126
449 1344 339 1049 608 1838 867 2543 797 2170 1600 3852 2529 5297 l122 190 7
140 c39 828 229 1624 551 2315 662 1416 1853 2323 3310 2521 193 26 647 37
850 20 295 -25 632 -84 879 -155 l119 -34 196 75 c2593 985 5861 1187 9836
607 499 -73 1157 -184 1538 -260 98 -19 183 -34 190 -31 30 10 -557 376 -933
582 -1898 1039 -4213 1722 -6405 1889 -488 38 -1173 53 -1603 36z"/>
<path d="M116580 46999 c-133 -15 -292 -50 -431 -96 -853 -278 -1462 -1070
-1663 -2163 -57 -313 -80 -742 -57 -1075 107 -1516 899 -2972 2036 -3741 1100
-744 2321 -702 3133 107 469 467 752 1112 848 1934 22 184 25 716 6 895 -48
442 -128 812 -262 1203 -552 1615 -1800 2792 -3112 2936 -112 13 -388 12 -498
0z"/>
</g>
</svg>
